<?xml version="1.0" encoding="utf-8"?>
<!-- Generator: Adobe Illustrator 15.1.0, SVG Export Plug-In . SVG Version: 6.00 Build 0)  -->
<!DOCTYPE svg PUBLIC "-//W3C//DTD SVG 1.1//EN" "http://www.w3.org/Graphics/SVG/1.1/DTD/svg11.dtd"[]>
<svg version="1.1" id="Layer_1" xmlns="http://www.w3.org/2000/svg" xmlns:xlink="http://www.w3.org/1999/xlink" x="0px" y="0px" width="250px" height="200px" viewBox="0 0 250 200" enable-background="new 0 0 250 200" xml:space="preserve">
  <rect fill="#FFD69F" width="250" height="200" />
  <polygon fill="#D1AF8B" points="250,200 186.873,200 65.873,111 68.873,80 86.606,54.634 112.396,34.445 153.5,34.445 250,101.445 
	" />
  <g>
    <g>
      <path fill="#3F2600" d="M182.342,64.817c-0.227-1.183-1.364-1.958-2.551-1.731l-14.556,2.784c-3.958,0.76-7.327,3.223-9.247,6.761
			l-0.063,0.114c-0.006,0.01-0.012,0.021-0.016,0.031c-4.088,7.53-9.922,14.164-16.875,19.185l-3.419,2.468
			c-0.095,0.069-0.184,0.145-0.265,0.227l-23.403,23.402c-2.356,2.354-6.02,2.65-8.711,0.698c-0.289-0.209-0.565-0.445-0.82-0.698
			c-1.272-1.274-1.974-2.965-1.974-4.765c0-1.803,0.7-3.495,1.974-4.766l15.403-15.402c5.646-5.649,6.326-14.434,1.616-20.885
			c-3.022-4.14-7.881-6.611-13.002-6.611c-0.316,0-1.348,0.054-1.796,0.079c-3.921,0.244-7.61,1.908-10.387,4.686L81.442,83.203
			c-0.401,0.401-0.629,0.944-0.638,1.51l-0.335,22.979c-0.02,1.287-0.521,2.5-1.391,3.422h-1.622c-1.01,0-1.858,0.688-2.105,1.618
			h-0.001c-2.823,0-5.118-2.291-5.118-5.107c0-0.077,1.196-29.549,1.196-29.549c0.043-1.019,0.454-1.977,1.16-2.702l32.493-33.546
			c1.954-1.948,4.55-3.021,7.313-3.021h39.202c1.206,0,2.181-0.976,2.181-2.18c0-1.204-0.975-2.18-2.181-2.18h-39.202
			c-3.935,0-7.629,1.53-10.409,4.308c-0.007,0.008-0.015,0.017-0.023,0.026L69.46,72.335c-1.455,1.494-2.302,3.468-2.389,5.561
			c0,0-1.199,29.604-1.199,29.728c0,5.197,4.211,9.428,9.404,9.469v52.281c0,1.205,0.977,2.181,2.18,2.181h24.499
			c1.206,0,2.18-0.976,2.18-2.181v-45.4c1.001,0.288,2.025,0.438,3.05,0.438c2.851,0,5.684-1.108,7.846-3.27l23.278-23.279
			l3.278-2.365c7.476-5.397,13.749-12.532,18.146-20.626l0.065-0.116c0.006-0.012,0.012-0.021,0.019-0.033
			c1.292-2.39,3.567-4.056,6.24-4.568l14.553-2.785C181.793,67.144,182.567,66,182.342,64.817L182.342,64.817z M96.294,115.473
			c0.362,1.831,1.184,3.531,2.401,4.974H79.637v-4.974H96.294z M79.637,152.865h20.139v4.992H79.637V152.865z M79.637,148.504v-4.99
			h20.139v4.99H79.637z M79.637,139.153v-4.993h20.139v4.993H79.637z M79.637,129.799v-4.993h20.139v4.993H79.637z M97.336,73.479
			c2.024-2.026,4.714-3.24,7.555-3.417c0.62-0.035,1.386-0.071,1.543-0.073c2.974,0,5.826,1.148,7.979,3.141l-7.595,5.242
			c-0.992,0.684-1.24,2.042-0.558,3.033c0.424,0.613,1.104,0.942,1.798,0.942c0.425,0,0.858-0.124,1.236-0.386l7.718-5.325
			c2.157,4.436,1.33,9.798-2.277,13.408l-2.203,2.203L98.335,92.5c-2.619-0.008-4.749-2.144-4.749-4.765V77.227L97.336,73.479z
			 M84.83,107.757l0.323-22.096l4.073-4.071v6.145c0,5.034,4.094,9.127,9.127,9.127c0.013,0,0.026,0,0.039,0l9.697-0.174
			l-8.755,8.756c-1.574,1.57-2.617,3.531-3.04,5.669H84.161C84.579,110.058,84.812,108.924,84.83,107.757L84.83,107.757z
			 M79.637,167.191v-4.973h20.139v4.973H79.637z M79.637,167.191" />
    </g>
    <path fill="#3F2600" d="M135.838,157.857h-24.5c-1.204,0-2.18,0.977-2.18,2.182v9.334c0,1.204,0.976,2.18,2.18,2.18h24.5
		c1.205,0,2.183-0.976,2.183-2.18v-9.334C138.021,158.834,137.043,157.857,135.838,157.857L135.838,157.857z M133.658,167.191
		h-20.14v-4.973h20.14V167.191z M133.658,167.191" />
  </g>
  <path fill="#FFE43F" d="M96.295,115.446c0.361,1.831,1.184,3.531,2.4,4.974H79.637v-4.974H96.295z" />
  <rect x="79.637" y="152.839" fill="#FFE43F" width="20.138" height="4.992" />
  <rect x="79.637" y="143.487" fill="#FFE43F" width="20.138" height="4.99" />
  <rect x="79.637" y="134.134" fill="#FFE43F" width="20.138" height="4.993" />
  <rect x="79.637" y="124.779" fill="#FFE43F" width="20.138" height="4.993" />
  <rect x="79.637" y="162.192" fill="#FFE43F" width="20.138" height="4.973" />
  <rect x="113.52" y="162.219" fill="#FFE43F" width="20.139" height="4.973" />
</svg>